# xmcd
#
# Track frame offsets: 
#        150
#        14826
#        30229
#        38452
#        56650
#        74592
#        85533
#        96016
#        117944
#        134722
#        147854
#        160311
#        167866
#        179698
#        191301
#        203086
#        217049
#        232238
#        251910
#        265637
#        279470
#        294322
#        316694
#
# Disc length: 4375 seconds
#
# Revision: 2
# Processed by: cddbd v1.5.2PL0 Copyright (c) Steve Scherf et al.
# Submitted via: ExactAudioCopyFreeDBPlugin 1.0
#
DISCID=54111517
DTITLE=Blind James Campbell - And His Nashville Street Band
DYEAR=1995
DGENRE=Blues
TTITLE0=Have I Stayed Away Too Long
TTITLE1=I'm Crazy About You Baby
TTITLE2=Buffalo Gal
TTITLE3=Will The Circle Be Unbroken
TTITLE4=The Moon May Rise In Blood
TTITLE5=John Henry
TTITLE6=Baby Please Don't Go
TTITLE7=Jimmy's Blues
TTITLE8=Monkey Man Blues
TTITLE9=This Little Light Of Mine
TTITLE10=Detroit Blues
TTITLE11=Beauford's Breakdown
TTITLE12=Gambling Man
TTITLE13=Sittin' Here Drinking
TTITLE14=Jam Piece (George's Boogie)
TTITLE15=I Never Had Nothing
TTITLE16=Do You Remeber (Theme Song)
TTITLE17=My Gal Got Evil
TTITLE18=Beauford's Boogie Woogie
TTITLE19=When The Saints Go Marching In
TTITLE20=I Am So Blue When It Rains
TTITLE21=Pick And Shovel Blues
TTITLE22=Detroit Jump
EXTD=
EXTT0=
EXTT1=
EXTT2=
EXTT3=
EXTT4=
EXTT5=
EXTT6=
EXTT7=
EXTT8=
EXTT9=
EXTT10=
EXTT11=
EXTT12=
EXTT13=
EXTT14=
EXTT15=
EXTT16=
EXTT17=
EXTT18=
EXTT19=
EXTT20=
EXTT21=
EXTT22=
PLAYORDER=
